<?xml version="1.0" encoding="UTF-8" standalone="no"?>
<svg
   xmlns:dc="http://purl.org/dc/elements/1.1/"
   xmlns:cc="http://creativecommons.org/ns#"
   xmlns:rdf="http://www.w3.org/1999/02/22-rdf-syntax-ns#"
   xmlns:svg="http://www.w3.org/2000/svg"
   xmlns="http://www.w3.org/2000/svg"
   xmlns:sodipodi="http://sodipodi.sourceforge.net/DTD/sodipodi-0.dtd"
   xmlns:inkscape="http://www.inkscape.org/namespaces/inkscape"
   width="949pt"
   height="330pt"
   viewBox="0 0 949 330"
   version="1.1"
   id="svg3248"
   inkscape:version="0.48.0 r9654"
   sodipodi:docname="naneos_v3_white.svg">
  <metadata
     id="metadata3352">
    <rdf:RDF>
      <cc:Work
         rdf:about="">
        <dc:format>image/svg+xml</dc:format>
        <dc:type
           rdf:resource="http://purl.org/dc/dcmitype/StillImage" />
        <dc:title></dc:title>
      </cc:Work>
    </rdf:RDF>
  </metadata>
  <defs
     id="defs3350" />
  <sodipodi:namedview
     pagecolor="#ffffff"
     bordercolor="#666666"
     borderopacity="1"
     objecttolerance="10"
     gridtolerance="10"
     guidetolerance="10"
     inkscape:pageopacity="0"
     inkscape:pageshadow="2"
     inkscape:window-width="1133"
     inkscape:window-height="797"
     id="namedview3348"
     showgrid="false"
     inkscape:zoom="0.42992624"
     inkscape:cx="578.89565"
     inkscape:cy="206.25"
     inkscape:window-x="122"
     inkscape:window-y="109"
     inkscape:window-maximized="0"
     inkscape:current-layer="svg3248" />
  <path
     fill="#ffffff"
     d=" M 0.00 0.00 L 949.00 0.00 L 949.00 330.00 L 0.00 330.00 L 0.00 0.00 Z"
     id="path3250" />
  <path
     fill="#d2d2dd"
     d=" M 759.31 21.97 C 759.21 12.70 767.61 4.08 776.97 4.40 C 797.99 4.40 819.01 4.42 840.03 4.39 C 849.09 4.07 857.53 11.86 857.76 20.96 C 857.91 40.63 857.73 60.31 857.83 79.99 C 857.80 83.19 857.98 86.43 857.36 89.58 C 855.48 97.23 847.96 103.23 840.00 102.83 C 819.29 102.82 798.57 102.76 777.86 102.85 C 777.77 107.68 777.77 112.51 777.84 117.34 C 791.58 117.52 805.32 117.30 819.06 117.43 C 828.12 117.60 836.04 125.92 835.80 134.99 C 835.82 155.99 835.81 176.99 835.81 198.00 C 836.29 207.15 828.24 215.84 819.02 215.78 C 797.67 215.86 776.32 215.78 754.97 215.82 C 745.84 216.13 737.49 208.13 737.35 199.01 C 737.15 182.63 737.42 166.25 737.22 149.87 C 723.81 149.72 710.40 149.85 697.00 149.82 C 686.64 150.23 678.07 140.15 679.26 130.03 C 679.34 109.67 679.24 89.32 679.31 68.97 C 679.12 59.63 687.67 51.25 696.95 51.40 C 717.71 51.35 738.46 51.50 759.22 51.33 C 759.42 41.55 759.17 31.76 759.31 21.97 Z"
     id="path3252" />
  <path
     fill="#ffffff"
     d=" M 774.38 8.51 C 783.22 7.97 792.13 7.91 801.00 8.20 C 810.32 7.94 819.65 7.97 828.97 8.14 C 834.55 8.29 840.37 7.11 845.75 9.10 C 850.88 11.13 854.32 16.47 854.18 21.97 C 854.23 42.32 854.15 62.68 854.22 83.03 C 854.30 87.08 853.29 91.37 850.30 94.28 C 847.43 97.32 843.05 98.11 839.05 98.02 C 818.66 97.94 798.27 98.07 777.89 97.95 C 770.51 98.03 764.01 91.39 764.48 83.96 C 764.37 63.00 764.43 42.03 764.45 21.06 C 764.19 15.19 768.69 9.71 774.38 8.51 Z"
     id="path3254" />
  <path
     fill="#5155d0"
     d=" M 774.40 11.65 C 776.87 10.98 779.47 11.01 782.02 10.97 C 801.02 11.05 820.02 10.96 839.01 11.02 C 842.69 10.93 846.60 12.10 848.84 15.20 C 851.17 17.90 851.16 21.64 851.15 25.01 C 851.03 45.02 851.27 65.03 851.04 85.03 C 851.08 90.80 845.64 95.53 839.98 95.21 C 819.35 95.27 798.71 95.32 778.09 95.18 C 772.06 95.54 766.70 90.11 767.04 84.10 C 766.94 63.72 767.02 43.34 767.01 22.96 C 766.66 18.08 769.60 13.06 774.40 11.65 Z"
     id="path3256"
     style="fill:#3f55a4" />
  <path
     fill="#ffffff"
     d=" M 688.30 60.26 C 690.70 57.45 694.47 56.67 698.01 56.79 C 718.53 56.94 739.05 56.67 759.57 56.94 C 759.41 57.43 759.08 58.41 758.92 58.90 C 739.27 59.14 719.61 58.93 699.96 58.99 C 696.49 59.01 692.65 59.48 690.15 62.15 C 687.49 64.66 686.92 68.47 686.98 71.95 C 687.02 91.32 686.98 110.68 687.00 130.05 C 686.93 133.49 687.83 137.15 690.52 139.49 C 693.26 142.22 697.38 142.21 700.99 142.28 C 713.01 142.23 725.03 142.26 737.05 142.25 C 737.12 142.93 737.26 144.28 737.33 144.96 C 724.18 145.02 711.03 145.02 697.89 144.97 C 692.57 145.01 687.41 141.69 685.35 136.79 C 684.39 133.60 684.43 130.23 684.40 126.93 C 684.46 108.63 684.42 90.34 684.42 72.05 C 684.44 67.86 684.92 63.18 688.30 60.26 Z"
     id="path3258" />
  <path
     fill="#5155d0"
     d=" M 690.15 62.15 C 692.65 59.48 696.49 59.01 699.96 58.99 C 719.61 58.93 739.27 59.14 758.92 58.90 C 759.29 67.93 758.83 76.97 759.13 85.99 C 759.41 93.14 764.38 99.69 771.10 102.06 C 771.13 107.11 771.13 112.17 771.11 117.22 C 761.73 117.84 750.48 114.66 742.98 122.04 C 737.08 126.99 736.61 135.13 737.05 142.25 C 725.03 142.26 713.01 142.23 700.99 142.28 C 697.38 142.21 693.26 142.22 690.52 139.49 C 687.83 137.15 686.93 133.49 687.00 130.05 C 686.98 110.68 687.02 91.32 686.98 71.95 C 686.92 68.47 687.49 64.66 690.15 62.15 Z"
     id="path3260"
     style="fill:#3f55a4" />
  <path
     fill="#ffffff"
     d=" M 771.10 102.06 C 772.07 102.34 773.02 102.67 773.97 103.06 C 774.50 107.80 774.11 112.59 774.14 117.35 C 773.39 117.32 771.87 117.25 771.11 117.22 C 771.13 112.17 771.13 107.11 771.10 102.06 Z"
     id="path3262" />
  <path
     fill="#ffffff"
     d=" M 752.38 121.50 C 754.53 121.05 756.72 120.89 758.92 120.90 C 774.96 121.32 791.00 121.23 807.04 121.16 C 813.58 120.95 821.28 119.65 826.63 124.40 C 830.41 127.35 831.01 132.46 830.99 136.94 C 830.99 156.63 831.01 176.32 830.99 196.01 C 830.98 200.39 829.57 205.09 826.03 207.90 C 823.23 210.17 819.57 211.09 816.02 211.00 C 796.34 210.99 776.66 211.00 756.97 211.00 C 752.53 211.17 747.96 209.41 745.21 205.84 C 742.47 202.95 742.57 198.71 742.42 195.00 C 742.46 174.69 742.38 154.37 742.46 134.06 C 742.00 128.12 746.66 122.61 752.38 121.50 Z"
     id="path3264" />
  <path
     fill="#5155d0"
     d=" M 752.47 124.61 C 755.25 123.88 758.16 124.00 761.02 123.98 C 779.69 124.08 798.36 123.90 817.04 124.06 C 822.98 123.80 828.53 128.94 828.10 135.01 C 828.16 155.33 828.11 175.66 828.13 195.98 C 828.18 199.23 827.61 202.77 825.11 205.08 C 822.79 207.60 819.25 208.29 815.97 208.26 C 796.95 208.27 777.94 208.23 758.93 208.27 C 755.54 208.20 751.77 208.27 749.05 205.94 C 746.02 203.62 744.84 199.68 744.99 195.99 C 745.01 175.98 744.99 155.97 745.00 135.96 C 744.68 131.08 747.55 125.89 752.47 124.61 Z"
     id="path3266"
     style="fill:#3f55a4" />
  <path
     fill="#838383"
     d=" M 359.73 129.77 C 369.87 124.40 381.76 123.60 392.95 125.16 C 401.19 126.62 409.62 130.49 414.04 137.93 C 418.83 145.85 417.80 155.95 413.93 164.02 C 403.87 163.93 393.80 164.13 383.75 163.90 C 387.57 162.47 392.31 161.22 394.06 157.07 C 395.60 153.14 395.41 148.01 392.16 144.96 C 388.97 141.88 384.30 141.01 380.01 141.13 C 373.04 141.18 366.44 144.78 361.89 149.93 C 358.18 153.91 356.14 159.05 354.10 164.00 C 346.54 163.99 338.98 164.01 331.42 163.99 C 336.17 149.61 346.08 136.67 359.73 129.77 Z"
     id="path3268" />
  <path
     fill="#5155d0"
     d=" M 459.69 131.66 C 467.89 126.75 477.51 124.22 487.07 124.52 C 496.51 124.23 506.40 126.30 514.00 132.16 C 521.44 138.04 525.19 147.48 525.62 156.78 C 525.58 159.08 527.04 162.13 525.04 163.88 C 517.35 164.21 509.64 163.89 501.95 164.00 C 502.13 158.19 501.15 151.55 496.39 147.65 C 491.66 143.61 484.96 143.54 479.13 144.39 C 469.31 146.54 462.19 154.97 458.67 164.00 C 450.56 163.98 442.46 164.03 434.35 163.98 C 438.91 150.82 447.49 138.71 459.69 131.66 Z"
     id="path3270"
     style="fill:#3f55a4" />
  <path
     fill="#838383"
     d=" M 553.93 140.92 C 560.80 130.74 573.35 126.47 585.01 124.96 C 597.83 124.03 610.83 124.32 623.45 126.92 C 623.47 133.07 623.43 139.21 623.48 145.36 C 613.98 142.37 604.00 140.80 594.03 141.09 C 588.72 140.94 583.16 141.72 578.63 144.70 C 574.68 147.36 572.63 153.32 575.72 157.38 C 578.67 160.72 583.05 162.13 587.05 163.78 C 575.38 164.30 563.69 163.84 552.02 164.01 C 549.07 156.51 549.31 147.70 553.93 140.92 Z"
     id="path3272" />
  <path
     fill="#5155d0"
     d=" M 31.99 139.85 C 40.45 132.43 51.63 126.64 63.17 128.40 C 71.54 129.25 79.32 133.90 84.34 140.59 C 88.72 146.78 89.70 154.61 90.01 162.00 C 90.00 182.00 89.99 202.00 90.01 222.00 C 82.34 221.99 74.67 222.00 67.00 222.01 C 67.00 206.67 67.02 191.33 66.99 175.99 C 66.86 169.66 67.12 163.10 64.79 157.10 C 62.82 152.03 57.43 148.63 52.00 148.96 C 46.70 148.56 41.42 151.02 38.10 155.13 C 33.76 160.36 32.06 167.33 32.09 174.02 C 31.89 190.01 32.05 206.01 32.00 222.00 C 24.33 222.00 16.66 222.00 8.99 222.00 C 9.01 191.33 9.00 160.67 9.00 130.00 C 16.66 130.00 24.33 130.00 32.00 130.00 C 32.01 133.28 32.01 136.56 31.99 139.85 Z"
     id="path3274"
     style="fill:#3f55a4;fill-opacity:1" />
  <path
     fill="#5155d0"
     d=" M 145.09 128.64 C 157.77 126.31 170.83 131.47 180.00 140.21 C 179.99 136.80 180.00 133.40 180.00 130.00 C 187.67 130.00 195.33 130.00 203.00 130.00 C 203.00 160.67 203.00 191.33 203.00 222.00 C 195.34 222.00 187.67 222.00 180.00 222.00 C 180.00 218.65 179.99 215.30 180.01 211.95 C 171.35 220.30 159.08 225.42 146.98 223.54 C 134.30 222.32 123.08 214.25 116.09 203.86 C 110.67 196.01 108.54 186.43 108.00 177.04 C 108.14 165.72 110.77 154.00 117.92 144.97 C 124.47 136.37 134.21 129.90 145.09 128.64 Z"
     id="path3276"
     style="fill:#3f55a4" />
  <path
     fill="#5155d0"
     d=" M 249.98 139.86 C 258.43 132.44 269.60 126.66 281.13 128.39 C 289.51 129.24 297.30 133.89 302.33 140.58 C 306.72 146.78 307.71 154.63 308.01 162.04 C 307.99 182.03 308.00 202.01 308.00 222.00 C 300.33 222.00 292.66 222.00 285.00 222.00 C 284.99 206.33 285.02 190.67 284.98 175.00 C 284.87 168.99 285.01 162.75 282.77 157.06 C 280.80 152.02 275.42 148.63 270.02 148.97 C 264.71 148.55 259.43 151.03 256.10 155.13 C 251.77 160.35 250.06 167.31 250.09 173.98 C 249.90 189.99 250.04 205.99 250.01 222.00 C 242.34 222.00 234.67 222.00 227.00 222.01 C 227.00 191.34 227.00 160.66 227.00 129.99 C 234.67 130.00 242.34 130.00 250.01 130.00 C 250.01 133.29 250.00 136.57 249.98 139.86 Z"
     id="path3278"
     style="fill:#3f55a4" />
  <path
     fill="#ffffff"
     d=" M 149.46 149.55 C 156.60 148.21 164.59 148.80 170.57 153.30 C 177.57 158.05 181.31 166.63 181.03 174.97 C 181.40 181.80 179.66 188.90 175.25 194.24 C 170.51 200.34 162.65 203.61 154.98 203.03 C 145.41 203.32 136.80 196.52 133.10 188.00 C 130.70 182.65 130.76 176.64 131.19 170.92 C 132.16 160.98 139.68 151.89 149.46 149.55 Z"
     id="path3280" />
  <path
     fill="#838383"
     d=" M 329.27 171.12 C 355.45 170.87 381.63 171.01 407.80 171.05 C 397.62 178.80 384.43 180.83 371.99 181.58 C 364.70 182.39 357.36 181.82 350.05 182.04 C 350.07 187.74 349.07 194.21 352.98 198.97 C 357.54 205.09 365.86 206.17 372.96 205.91 C 382.76 205.77 392.56 204.37 402.00 201.72 C 402.00 207.55 401.99 213.38 402.01 219.21 C 390.92 222.26 379.41 223.71 367.93 224.14 C 357.22 224.00 345.55 222.11 337.45 214.52 C 331.85 209.57 328.84 202.30 327.88 195.01 C 327.07 187.03 327.69 178.97 329.27 171.12 Z"
     id="path3282" />
  <path
     fill="#5155d0"
     d=" M 432.14 171.00 C 440.16 171.01 448.18 170.99 456.20 171.00 C 454.57 177.30 453.51 183.88 454.43 190.38 C 455.18 195.31 457.84 200.27 462.49 202.49 C 470.41 206.16 480.37 204.77 486.99 199.07 C 495.23 192.08 499.68 181.51 501.17 171.00 C 509.16 171.00 517.15 171.00 525.13 171.00 C 522.50 186.33 515.78 201.55 503.61 211.65 C 493.31 220.47 479.50 224.70 466.04 224.05 C 457.56 223.40 448.69 221.56 441.97 216.02 C 434.21 209.84 430.41 199.69 430.54 189.95 C 430.30 183.59 430.91 177.24 432.14 171.00 Z"
     id="path3284"
     style="fill:#3f55a4" />
  <path
     fill="#838383"
     d=" M 556.88 171.08 C 572.95 170.97 589.02 170.92 605.09 171.09 C 609.23 172.69 612.68 176.01 615.32 179.55 C 621.47 188.92 619.36 201.98 612.26 210.24 C 605.93 217.59 596.42 221.30 587.05 222.87 C 570.94 225.39 554.36 223.85 538.51 220.31 C 538.55 213.56 538.56 206.81 538.51 200.06 C 550.25 204.07 562.59 206.98 575.07 206.75 C 580.79 206.45 587.17 205.71 591.42 201.43 C 594.98 197.91 595.61 190.86 591.09 187.86 C 583.19 182.48 573.19 181.80 565.01 176.96 C 562.04 175.39 559.36 173.33 556.88 171.08 Z"
     id="path3286" />
  <path
     fill="#838383"
     d=" M 200.37 243.56 C 204.71 241.60 210.00 246.33 208.68 250.86 C 207.93 254.64 203.25 257.16 199.79 255.19 C 197.28 254.12 196.53 251.32 195.64 249.02 C 196.83 246.94 197.83 244.29 200.37 243.56 Z"
     id="path3288" />
  <path
     fill="#838383"
     d=" M 542.34 243.57 C 546.72 241.56 552.06 246.40 550.66 250.95 C 549.86 254.69 545.21 257.14 541.78 255.18 C 539.25 254.13 538.54 251.30 537.64 249.00 C 538.83 246.94 539.81 244.30 542.34 243.57 Z"
     id="path3290" />
  <path
     fill="#838383"
     d=" M 174.00 244.00 C 177.67 244.00 181.33 244.00 185.00 244.00 C 185.00 249.33 184.99 254.66 185.00 260.00 C 187.00 260.00 189.00 260.00 191.00 260.00 C 191.00 263.00 191.00 266.00 191.00 269.00 C 189.00 269.00 187.00 269.00 185.00 269.00 C 185.00 280.34 185.00 291.67 185.00 303.00 C 181.33 303.00 177.67 303.00 174.00 303.00 C 174.00 291.67 174.00 280.34 174.00 269.00 C 172.34 269.00 170.69 269.00 169.03 269.00 C 169.01 265.99 168.91 262.99 168.72 260.00 C 170.48 259.99 172.23 259.99 173.99 260.00 C 174.01 254.66 174.00 249.33 174.00 244.00 Z"
     id="path3292" />
  <path
     fill="#838383"
     d=" M 267.00 244.00 C 270.66 244.00 274.33 244.00 278.00 244.00 C 278.00 263.67 277.99 283.33 278.00 303.00 C 274.33 303.00 270.67 302.99 267.00 303.00 C 267.00 283.33 267.01 263.67 267.00 244.00 Z"
     id="path3294" />
  <path
     fill="#838383"
     d=" M 448.00 244.00 C 451.66 244.00 455.33 244.00 459.00 244.00 C 459.00 263.66 458.99 283.33 459.01 303.00 C 455.33 303.00 451.67 303.00 448.00 303.00 C 448.00 283.33 448.00 263.67 448.00 244.00 Z"
     id="path3296" />
  <path
     fill="#838383"
     d=" M 516.00 244.00 C 519.66 244.00 523.33 244.00 527.00 244.00 C 527.00 249.33 526.99 254.66 527.00 260.00 C 529.00 259.99 531.00 260.00 533.00 260.00 C 533.00 263.00 533.00 266.00 533.00 269.00 C 531.00 269.00 529.00 269.00 527.00 269.00 C 526.99 280.34 527.00 291.67 527.00 303.00 C 523.33 302.99 519.66 303.00 515.99 303.00 C 516.00 291.67 516.00 280.34 516.00 269.01 C 514.32 269.00 512.66 269.00 511.00 269.00 C 510.99 266.00 511.00 263.00 511.00 260.00 C 512.66 260.00 514.32 260.00 516.00 260.00 C 516.00 254.67 516.00 249.33 516.00 244.00 Z"
     id="path3298" />
  <path
     fill="#838383"
     d=" M 844.00 244.00 C 847.66 244.00 851.33 244.00 855.00 244.00 C 855.00 250.98 854.97 257.97 855.04 264.96 C 859.28 260.96 865.23 258.03 871.17 259.37 C 877.23 260.31 882.47 264.50 885.22 269.91 C 888.65 276.89 888.87 285.41 885.41 292.43 C 882.53 297.90 877.39 302.42 871.20 303.57 C 865.29 304.99 859.22 302.23 854.99 298.18 C 854.98 299.78 854.99 301.39 855.01 303.00 C 851.33 303.00 847.66 303.00 843.99 303.00 C 844.01 283.33 844.00 263.67 844.00 244.00 Z"
     id="path3300" />
  <path
     fill="#838383"
     d=" M 897.00 244.00 C 900.66 244.00 904.33 244.00 908.00 244.00 C 907.98 250.94 908.04 257.88 907.97 264.82 C 911.53 261.52 916.13 259.07 921.08 259.06 C 925.11 259.37 929.14 261.12 931.80 264.22 C 934.33 267.56 934.98 271.94 935.02 276.04 C 934.99 285.02 934.99 294.01 935.00 303.00 C 931.33 303.00 927.66 303.00 923.99 303.00 C 923.89 293.96 924.24 284.91 923.79 275.88 C 923.66 272.76 921.67 268.98 918.13 269.03 C 912.43 267.83 907.99 273.70 908.10 278.92 C 907.86 286.94 908.06 294.97 908.00 303.00 C 904.33 303.00 900.66 302.99 897.00 303.00 C 897.00 283.33 897.00 263.67 897.00 244.00 Z"
     id="path3302" />
  <path
     fill="#838383"
     d=" M 52.97 265.01 C 57.37 260.73 63.78 257.84 69.94 259.54 C 78.29 261.11 84.41 268.84 85.48 277.05 C 87.90 288.01 81.19 300.78 69.92 303.40 C 63.82 305.21 57.43 302.34 52.99 298.19 C 53.01 305.13 52.99 312.06 53.00 319.00 C 49.33 319.00 45.67 319.00 42.00 319.00 C 42.01 299.33 42.00 279.67 42.00 260.00 C 45.67 260.00 49.34 260.00 53.02 260.00 C 53.00 261.67 52.99 263.34 52.97 265.01 Z"
     id="path3304" />
  <path
     fill="#838383"
     d=" M 110.08 259.55 C 116.23 257.84 122.64 260.73 127.03 265.02 C 127.01 263.34 127.00 261.67 126.99 260.00 C 130.66 260.00 134.33 260.00 138.00 260.00 C 138.00 274.33 137.99 288.67 138.00 303.00 C 134.33 303.00 130.66 303.00 126.99 303.00 C 126.99 301.38 127.00 299.77 127.01 298.17 C 122.81 302.23 116.74 304.97 110.85 303.58 C 104.67 302.40 99.49 297.94 96.60 292.45 C 93.11 285.42 93.35 276.88 96.79 269.88 C 99.45 264.75 104.31 260.61 110.08 259.55 Z"
     id="path3306" />
  <path
     fill="#838383"
     d=" M 156.94 266.28 C 158.39 262.70 161.07 259.81 164.87 258.77 C 166.07 259.19 167.26 259.60 168.46 260.01 C 167.84 263.13 167.05 266.23 166.02 269.25 C 164.29 269.37 162.12 268.35 160.78 269.86 C 158.35 272.20 158.13 275.82 158.03 278.99 C 157.95 286.99 158.02 294.99 158.00 303.00 C 154.33 303.00 150.67 302.99 147.00 303.00 C 147.00 288.67 147.01 274.33 147.00 260.00 C 150.34 260.00 153.68 260.00 157.02 259.99 C 157.01 262.09 156.98 264.18 156.94 266.28 Z"
     id="path3308" />
  <path
     fill="#838383"
     d=" M 222.17 266.13 C 231.57 256.11 249.72 256.98 257.86 268.17 C 255.22 269.69 252.55 271.16 249.86 272.61 C 245.34 268.72 238.65 267.77 233.24 270.21 C 226.75 273.46 225.31 282.36 228.45 288.41 C 232.84 295.87 244.06 295.60 250.11 290.40 C 252.70 292.11 255.27 293.85 257.82 295.62 C 248.65 306.83 228.58 306.93 220.29 294.67 C 213.98 286.27 215.06 273.70 222.17 266.13 Z"
     id="path3310" />
  <path
     fill="#838383"
     d=" M 292.98 264.89 C 300.56 257.07 314.42 257.32 322.13 264.83 C 327.42 269.67 329.03 277.10 329.11 284.00 C 318.32 284.01 307.53 283.96 296.74 284.03 C 297.49 287.71 299.25 291.50 302.89 293.10 C 307.86 295.13 313.92 294.09 317.69 290.16 C 320.43 291.42 323.10 292.81 325.76 294.23 C 319.23 305.45 301.96 307.12 292.88 298.18 C 283.73 289.62 283.88 273.42 292.98 264.89 Z"
     id="path3312" />
  <path
     fill="#838383"
     d=" M 361.14 270.16 C 362.07 262.00 371.49 257.29 378.92 259.65 C 382.88 260.53 386.15 263.12 388.87 266.03 C 386.82 268.20 384.79 270.38 382.80 272.59 C 380.02 269.68 376.23 268.27 372.25 269.31 C 372.40 270.84 371.36 272.97 373.07 273.91 C 378.25 277.60 385.83 279.44 387.99 286.15 C 390.53 291.93 387.67 299.25 382.07 302.04 C 374.75 305.95 365.23 303.52 360.19 297.06 C 362.06 294.87 363.89 292.64 365.71 290.41 C 368.16 292.18 370.80 294.33 374.04 294.02 C 375.83 294.17 378.14 293.15 378.01 291.04 C 378.35 287.33 374.10 286.10 371.59 284.48 C 366.11 281.85 360.47 276.79 361.14 270.16 Z"
     id="path3314" />
  <path
     fill="#838383"
     d=" M 416.24 259.18 C 422.51 258.57 428.91 261.16 433.39 265.54 C 437.43 269.62 439.56 275.31 439.98 280.98 C 439.90 289.34 435.42 297.99 427.68 301.66 C 423.45 303.59 418.54 304.66 413.97 303.37 C 405.34 301.60 398.62 293.79 397.39 285.18 C 395.07 273.28 404.06 260.51 416.24 259.18 Z"
     id="path3316" />
  <path
     fill="#838383"
     d=" M 577.25 259.18 C 583.54 258.57 589.94 261.18 594.42 265.56 C 598.43 269.65 600.56 275.31 600.98 280.96 C 600.90 289.33 596.43 297.98 588.69 301.66 C 584.45 303.59 579.54 304.67 574.96 303.36 C 566.34 301.59 559.62 293.79 558.39 285.18 C 556.06 273.28 565.07 260.50 577.25 259.18 Z"
     id="path3318" />
  <path
     fill="#838383"
     d=" M 620.98 264.82 C 624.56 261.58 629.09 259.03 634.04 259.05 C 638.29 259.41 642.62 261.29 645.21 264.79 C 647.56 268.37 648.07 272.82 648.03 277.01 C 647.98 285.67 648.00 294.34 648.01 303.00 C 644.33 303.00 640.66 303.00 637.00 303.00 C 636.90 293.97 637.23 284.93 636.81 275.90 C 636.72 272.74 634.67 268.94 631.09 269.02 C 625.40 267.85 621.12 273.74 621.11 278.89 C 620.85 286.92 621.07 294.97 621.00 303.00 C 617.33 302.99 613.66 303.00 610.00 303.00 C 610.00 288.67 610.00 274.33 610.00 260.00 C 613.67 260.00 617.34 260.00 621.01 260.00 C 620.99 261.60 620.98 263.21 620.98 264.82 Z"
     id="path3320" />
  <path
     fill="#838383"
     d=" M 665.04 259.90 C 671.84 257.41 679.37 260.77 683.86 266.04 C 681.81 268.20 679.78 270.37 677.80 272.60 C 675.01 269.70 671.23 268.23 667.24 269.33 C 667.39 270.82 666.37 272.90 668.00 273.86 C 673.20 277.60 680.85 279.41 683.00 286.19 C 685.51 291.95 682.66 299.24 677.08 302.04 C 669.75 305.96 660.23 303.51 655.19 297.06 C 657.06 294.87 658.90 292.65 660.72 290.42 C 663.72 292.88 667.68 295.18 671.64 293.51 C 673.95 291.99 673.25 288.21 670.91 287.06 C 665.98 283.77 659.55 281.61 657.10 275.70 C 653.94 269.45 658.58 261.59 665.04 259.90 Z"
     id="path3322" />
  <path
     fill="#838383"
     d=" M 716.73 271.85 C 719.75 263.42 729.20 257.43 738.11 259.52 C 741.97 260.12 745.16 262.52 748.03 265.01 C 748.00 263.34 747.99 261.67 747.99 260.00 C 751.65 260.00 755.32 260.00 759.00 260.00 C 758.98 272.33 759.03 284.67 758.99 297.01 C 758.65 303.50 757.71 310.93 752.20 315.20 C 745.06 320.64 735.09 321.00 726.80 318.28 C 721.15 316.40 716.97 311.58 715.09 306.04 C 718.74 305.97 722.40 305.97 726.07 306.03 C 730.05 310.32 736.25 310.69 741.66 309.56 C 744.31 308.65 746.89 306.72 747.58 303.87 C 748.01 301.73 747.96 299.54 748.09 297.37 C 743.06 302.40 735.20 304.51 728.53 301.64 C 716.78 297.62 712.35 282.75 716.73 271.85 Z"
     id="path3324" />
  <path
     fill="#838383"
     d=" M 779.98 265.17 C 784.48 260.56 791.57 257.35 797.89 260.04 C 801.35 261.07 803.64 263.97 805.44 266.94 C 808.03 263.87 811.00 260.81 815.05 259.84 C 822.45 257.16 832.35 261.72 833.21 270.04 C 834.85 280.94 833.62 292.02 834.00 303.00 C 830.33 303.00 826.66 303.00 823.00 303.00 C 822.97 294.66 823.07 286.31 822.96 277.97 C 822.90 274.91 822.35 271.22 819.44 269.55 C 817.45 268.71 815.16 268.89 813.10 269.29 C 809.16 270.61 807.09 275.00 807.09 278.94 C 806.88 286.96 807.05 294.98 807.00 303.00 C 803.33 303.00 799.66 303.00 795.99 303.00 C 795.98 295.00 796.04 287.01 795.98 279.01 C 795.92 275.67 795.40 271.62 792.37 269.63 C 790.22 268.68 787.64 268.79 785.45 269.51 C 781.53 271.31 780.00 275.96 780.05 280.00 C 779.92 287.66 780.03 295.33 780.00 303.00 C 776.33 303.00 772.66 302.99 769.00 303.00 C 769.01 288.67 769.00 274.33 769.00 260.00 C 772.67 260.00 776.34 260.00 780.01 260.00 C 779.99 261.72 779.98 263.45 779.98 265.17 Z"
     id="path3326" />
  <path
     fill="#838383"
     d=" M 197.00 260.00 C 200.67 260.00 204.33 260.00 208.00 260.00 C 208.00 274.33 208.00 288.67 208.00 303.00 C 204.33 303.00 200.66 303.00 196.99 303.00 C 197.01 288.67 197.00 274.33 197.00 260.00 Z"
     id="path3328" />
  <path
     fill="#838383"
     d=" M 468.00 260.00 C 471.66 260.00 475.33 260.00 479.00 260.00 C 479.07 268.67 478.85 277.35 479.11 286.02 C 479.03 289.26 480.90 292.68 484.08 293.73 C 487.05 294.30 490.70 294.38 492.86 291.88 C 494.98 289.84 494.93 286.73 495.00 284.01 C 495.01 276.01 494.99 268.00 495.00 260.00 C 498.67 260.00 502.33 260.00 506.00 260.00 C 505.80 270.27 506.69 280.63 504.84 290.80 C 503.51 297.02 498.29 302.28 491.96 303.32 C 483.12 305.68 472.06 301.56 469.51 292.14 C 467.09 281.61 468.28 270.71 468.00 260.00 Z"
     id="path3330" />
  <path
     fill="#838383"
     d=" M 539.00 260.00 C 542.66 260.00 546.33 260.00 550.00 260.00 C 550.00 274.33 550.00 288.67 550.00 303.00 C 546.33 303.00 542.66 303.00 539.00 303.00 C 539.00 288.67 539.01 274.33 539.00 260.00 Z"
     id="path3332" />
  <path
     fill="#ffffff"
     d=" M 60.29 269.40 C 62.94 268.76 65.87 268.72 68.47 269.64 C 77.29 273.83 77.41 288.40 68.95 293.06 C 63.93 295.46 57.09 293.75 54.50 288.61 C 51.22 282.12 52.66 272.08 60.29 269.40 Z"
     id="path3334" />
  <path
     fill="#ffffff"
     d=" M 112.27 269.37 C 114.70 268.81 117.31 268.77 119.74 269.40 C 129.74 273.03 129.66 289.97 119.72 293.60 C 117.11 294.22 114.24 294.30 111.70 293.39 C 102.36 289.10 102.49 273.03 112.27 269.37 Z"
     id="path3336" />
  <path
     fill="#ffffff"
     d=" M 296.67 275.91 C 298.59 271.47 303.13 268.38 308.05 268.97 C 312.63 268.63 316.70 271.77 318.35 275.91 C 311.12 276.05 303.89 276.05 296.67 275.91 Z"
     id="path3338" />
  <path
     fill="#ffffff"
     d=" M 415.24 269.30 C 419.16 268.41 423.94 268.98 426.41 272.52 C 430.13 277.60 430.04 285.31 426.38 290.39 C 422.30 296.01 412.21 295.12 409.44 288.63 C 406.26 282.16 407.64 271.95 415.24 269.30 Z"
     id="path3340" />
  <path
     fill="#ffffff"
     d=" M 575.49 269.56 C 579.37 268.35 584.30 268.71 587.04 272.05 C 590.91 276.73 591.00 283.97 588.20 289.18 C 585.81 293.87 579.60 295.17 575.01 293.22 C 570.51 291.08 568.58 285.74 568.96 281.01 C 568.69 276.40 571.16 271.46 575.49 269.56 Z"
     id="path3342" />
  <path
     fill="#ffffff"
     d=" M 732.48 269.63 C 736.44 268.45 741.33 268.51 744.51 271.53 C 748.68 275.14 748.56 281.42 747.34 286.34 C 745.23 292.70 736.89 294.88 731.40 291.67 C 723.56 287.06 724.10 273.36 732.48 269.63 Z"
     id="path3344" />
  <path
     fill="#ffffff"
     d=" M 862.29 269.39 C 864.95 268.76 867.89 268.72 870.49 269.65 C 879.54 273.97 879.36 289.19 870.29 293.39 C 865.51 295.11 859.48 293.78 856.83 289.17 C 853.07 282.68 854.48 272.17 862.29 269.39 Z"
     id="path3346" />
</svg>
